<svg width="184" height="32" viewBox="0 0 184 32" fill="none" xmlns="http://www.w3.org/2000/svg">
<path d="M167.037 25.4777C165.28 25.4777 163.71 25.0853 162.328 24.3005C160.946 23.4986 159.863 22.3981 159.078 20.9991C158.293 19.6 157.901 18.0133 157.901 16.2389C157.901 14.4815 158.285 12.9033 159.053 11.5043C159.837 10.0882 160.912 8.98768 162.277 8.20284C163.659 7.40095 165.212 7 166.935 7C168.402 7 169.75 7.27299 170.979 7.81896C172.207 8.36493 173.239 9.14124 174.075 10.1479C174.928 11.1545 175.508 12.3318 175.816 13.6796H171.798C171.388 12.7412 170.774 12.0246 169.955 11.5299C169.153 11.0351 168.215 10.7877 167.14 10.7877C166.133 10.7877 165.229 11.018 164.427 11.4787C163.625 11.9393 163.002 12.5877 162.559 13.4237C162.115 14.2427 161.893 15.181 161.893 16.2389C161.893 17.3138 162.115 18.2692 162.559 19.1052C163.002 19.9242 163.625 20.564 164.427 21.0247C165.229 21.4683 166.15 21.6901 167.191 21.6901C168.3 21.6901 169.247 21.4427 170.032 20.9479C170.834 20.436 171.422 19.7109 171.798 18.7725H166.218V15.5479H176.072C176.123 17.4929 175.773 19.2161 175.022 20.7175C174.289 22.219 173.222 23.3877 171.823 24.2237C170.441 25.0597 168.846 25.4777 167.037 25.4777Z" fill="white"/>
<path d="M140.478 7.28125H143.369L150.97 17.6718L150.945 13.5514V7.28125H154.835V25.196H151.892L144.342 14.8566L144.368 20.3334V25.196H140.478V7.28125Z" fill="white"/>
<path d="M127.812 21.6386H130.627V10.7874H127.838V7.28125H137.281V10.7874H134.517V21.6386H137.332V25.196H127.812V21.6386Z" fill="white"/>
<path d="M116.202 17.3391V25.196H112.286V7.28125H116.202V15.0102L121.627 7.28125H125.978V7.71632L119.913 16.0595L126.311 24.7609V25.196H121.807L116.202 17.3391Z" fill="white"/>
<path d="M96.2656 7.28125H102.894C104.191 7.28125 105.317 7.52864 106.272 8.02343C107.228 8.51822 107.953 9.20921 108.448 10.0964C108.959 10.9666 109.215 11.9647 109.215 13.0907C109.215 14.4215 108.866 15.5732 108.166 16.5457C107.467 17.5012 106.477 18.1666 105.197 18.5419L109.932 24.7609V25.196H105.504L100.156 17.9789V25.196H96.2656V7.28125ZM102.766 15.7268C103.551 15.7268 104.165 15.522 104.609 15.1125C105.052 14.7031 105.274 14.123 105.274 13.3723C105.274 12.6386 105.044 12.067 104.583 11.6576C104.14 11.231 103.525 11.0177 102.741 11.0177H100.156V15.7268H102.766Z" fill="white"/>
<path d="M77.2544 24.7609L84.0364 7.28125H87.2866L94.0686 24.7609V25.196H89.9994L88.8478 21.9713H82.4497L81.298 25.196H77.2544V24.7609ZM87.7729 18.6443L85.6487 12.8604L83.5501 18.6443H87.7729Z" fill="white"/>
<path d="M65 7.28125H71.8588C73.0872 7.28125 74.1706 7.54571 75.109 8.07462C76.0474 8.58646 76.7725 9.32011 77.2844 10.2756C77.7962 11.231 78.0521 12.3315 78.0521 13.577C78.0521 14.8225 77.7962 15.923 77.2844 16.8784C76.7725 17.8168 76.0474 18.5505 75.109 19.0794C74.1706 19.5912 73.0872 19.8471 71.8588 19.8471H68.89V25.196H65V7.28125ZM71.4493 16.2386C72.2682 16.2386 72.9081 16.0083 73.3687 15.5476C73.8465 15.0699 74.0853 14.4215 74.0853 13.6026C74.0853 12.8007 73.8465 12.1609 73.3687 11.6831C72.9081 11.2054 72.2682 10.9666 71.4493 10.9666H68.89V16.2386H71.4493Z" fill="white"/>
<path d="M181.85 25.4267C181.202 25.4267 180.682 25.239 180.289 24.8636C179.897 24.4712 179.701 23.9594 179.701 23.3281C179.701 22.6968 179.897 22.1935 180.289 21.8181C180.682 21.4257 181.202 21.2295 181.85 21.2295C182.499 21.2295 183.019 21.4257 183.412 21.8181C183.804 22.1935 184 22.6968 184 23.3281C184 23.9594 183.804 24.4712 183.412 24.8636C183.019 25.239 182.499 25.4267 181.85 25.4267Z" fill="#49D69D"/>
<path d="M58 0V32H0V0H58ZM3.12658 29H54.8734V3H3.12658V29Z" fill="#49D69D"/>
<path d="M41.7102 25C40.5029 25 39.4424 24.7922 38.5287 24.3766C37.615 23.945 36.8971 23.3376 36.375 22.5543C35.8692 21.7551 35.6 20.8279 35.5674 19.7729H39.165C39.2139 20.3164 39.4831 20.772 39.9726 21.1396C40.4621 21.4913 41.0576 21.6671 41.7592 21.6671C42.5097 21.6671 43.1215 21.4274 43.5947 20.9478C44.0842 20.4683 44.3289 19.8528 44.3289 19.1016C44.3289 18.3503 44.0923 17.7428 43.6192 17.2793C43.146 16.7997 42.5179 16.5599 41.7347 16.5599C40.8863 16.5599 40.1276 16.8557 39.4587 17.4471H35.8366L36.7176 8H46.9721V11.2609H39.8258L39.6789 12.5317L39.5076 13.9944C40.3397 13.5947 41.2371 13.3949 42.1997 13.3949C43.3255 13.3949 44.3289 13.6347 45.21 14.1142C46.091 14.5938 46.7763 15.2732 47.2657 16.1523C47.7552 17.0155 47.9999 17.9986 47.9999 19.1016C47.9999 20.2525 47.7307 21.2755 47.1923 22.1707C46.6702 23.0658 45.9278 23.7612 44.9652 24.2567C44.0189 24.7522 42.9339 25 41.7102 25Z" fill="white"/>
<path d="M27.4183 25C26.2109 25 25.1504 24.7922 24.2367 24.3766C23.323 23.945 22.6051 23.3376 22.083 22.5543C21.5772 21.7551 21.308 20.8279 21.2754 19.7729H24.873C24.9219 20.3164 25.1912 20.772 25.6806 21.1396C26.1701 21.4913 26.7656 21.6671 27.4672 21.6671C28.2177 21.6671 28.8296 21.4274 29.3027 20.9478C29.7922 20.4683 30.0369 19.8528 30.0369 19.1016C30.0369 18.3503 29.8003 17.7428 29.3272 17.2793C28.854 16.7997 28.2259 16.5599 27.4427 16.5599C26.5943 16.5599 25.8356 16.8557 25.1667 17.4471H21.5446L22.4256 8H32.6801V11.2609H25.5338L25.3869 12.5317L25.2156 13.9944C26.0477 13.5947 26.9451 13.3949 27.9077 13.3949C29.0335 13.3949 30.0369 13.6347 30.918 14.1142C31.799 14.5938 32.4843 15.2732 32.9737 16.1523C33.4632 17.0155 33.708 17.9986 33.708 19.1016C33.708 20.2525 33.4387 21.2755 32.9003 22.1707C32.3782 23.0658 31.6359 23.7612 30.6732 24.2567C29.7269 24.7522 28.6419 25 27.4183 25Z" fill="white"/>
<path d="M14.6989 17.0874L14.7234 12.7955L11.5908 14.6657L10 12.0762L15.9226 8H18.3455V24.7842H14.6989V17.0874Z" fill="white"/>
</svg>
