<svg width="37" height="39" viewBox="0 0 37 39" fill="none" xmlns="http://www.w3.org/2000/svg">
<path d="M31.7386 19.6562L32.5001 19.3116C32.6739 19.2362 32.8625 19.1985 33.0528 19.2009C33.2431 19.2033 33.4306 19.2459 33.6023 19.3257C34.3034 19.6531 35.3783 20.0593 35.8862 20.6602C36.0071 20.8024 36.0957 20.9703 36.1451 21.1481C36.4985 24.3385 36.3431 27.5628 35.6843 30.7071C34.6892 36.3232 31.5448 38.4695 20.5359 38.3425C14.439 38.2757 6.95046 38.7279 3.01023 33.3874L2.51027 32.7172C1.26927 31.157 0.598044 22.3567 0.678351 15.5887C0.611514 10.9368 1.12997 6.29428 2.22219 1.76459C2.27865 1.58662 2.37506 1.42306 2.50444 1.2857C2.63383 1.14835 2.79298 1.04062 2.97039 0.970291C3.14781 0.899966 3.33908 0.868797 3.5304 0.879034C3.72171 0.889271 3.9083 0.940657 4.07671 1.02949L6.18764 2.09788C6.36968 2.19221 6.57227 2.24289 6.77854 2.24569C6.98482 2.24849 7.18879 2.20334 7.37347 2.11399L10.1052 0.79043C10.292 0.698549 10.4987 0.6514 10.7081 0.652913C10.9175 0.654426 11.1235 0.704557 11.3089 0.799128L14.0032 2.1816C14.3723 2.38391 14.8195 2.38918 15.1909 2.19715L17.9404 0.866166C18.1251 0.776822 18.3291 0.731672 18.5354 0.734475C18.7416 0.737278 18.9442 0.787956 19.1263 0.882284L21.8264 2.28267C22.0131 2.37297 22.2186 2.42069 22.4272 2.42219C22.6358 2.4237 22.842 2.37896 23.0301 2.29137L25.1898 1.23481C25.3601 1.15247 25.5468 1.10758 25.7369 1.10334C25.927 1.09909 26.1157 1.1356 26.2896 1.21026C26.9882 1.51086 28.0697 1.95641 28.5836 2.53183C28.7098 2.67178 28.7994 2.8321 28.8523 3.01278C30.1678 7.63446 30.7729 12.4198 30.648 17.2136L30.615 19.6447L30.6338 19.6527C30.8047 19.7376 30.9938 19.782 31.1857 19.7823C31.3776 19.7825 31.5669 19.7387 31.738 19.6544L31.7386 19.6562Z" fill="#2DC98A"/>
<path d="M2.71689 0.366431C2.9863 0.259641 3.27681 0.211612 3.56732 0.227157C3.85423 0.242509 4.1334 0.320578 4.38662 0.452403L4.38734 0.451072L6.49781 1.51884L6.50362 1.52263C6.59102 1.56785 6.6884 1.59154 6.7874 1.59297C6.88657 1.59432 6.98511 1.57293 7.07394 1.53003L9.80157 0.208132C10.0838 0.0693126 10.397 -0.00223321 10.7134 5.31246e-05C10.9505 0.00179749 11.1845 0.0457896 11.4049 0.127402L11.6208 0.22177L11.6222 0.222465L14.3164 1.60515L14.3329 1.61349C14.5032 1.70681 14.7076 1.70848 14.8759 1.62143L14.8836 1.61686L14.8916 1.6133L17.6415 0.282381C17.9219 0.146746 18.2314 0.0783285 18.5445 0.0825479C18.8577 0.0868041 19.1658 0.162883 19.4423 0.306113L22.126 1.69869L22.1987 1.72882C22.2733 1.75512 22.3521 1.76947 22.4318 1.77008C22.5383 1.77085 22.6438 1.74751 22.7399 1.70281L24.8876 0.652425L24.8904 0.650458C25.1489 0.52542 25.4329 0.457856 25.7216 0.451411C26.0102 0.444971 26.2966 0.500498 26.5607 0.613859C26.9006 0.760129 27.3742 0.957757 27.8241 1.19328C28.2633 1.42322 28.7495 1.72325 29.0885 2.10184L29.2223 2.26801C29.3457 2.43997 29.4379 2.62955 29.4978 2.8339L29.4995 2.83897C30.8326 7.52258 31.4457 12.3724 31.3191 17.2304L31.2929 19.117C31.3417 19.1076 31.3897 19.0947 31.4343 19.0727L32.1417 18.7245L32.1499 18.7498L32.2171 18.7204L32.2269 18.7152C32.4893 18.6014 32.7742 18.5448 33.0616 18.5484C33.2772 18.5512 33.4906 18.5882 33.6933 18.6573L33.8919 18.7369L33.8932 18.7376C34.2019 18.8818 34.6999 19.0899 35.1329 19.3143C35.5703 19.541 36.0624 19.8424 36.4035 20.2455C36.5859 20.4603 36.7195 20.7114 36.7934 20.9779L36.8071 21.0271L36.812 21.0779C37.1721 24.3284 37.014 27.6134 36.3449 30.8172C35.8276 33.7369 34.7193 35.8973 32.1889 37.2503C29.8903 38.4795 26.4996 38.993 21.5408 39L20.5282 38.9951C17.522 38.9622 14.0424 39.0597 10.8421 38.4836C7.61864 37.9034 4.57415 36.6246 2.46692 33.7704L1.96663 33.1006L1.96735 33.0992C1.7478 32.8168 1.57554 32.4317 1.43413 32.0155C1.28565 31.5784 1.15216 31.0523 1.03102 30.4624C0.788541 29.2816 0.588033 27.7991 0.430486 26.1672C0.115176 22.9011 -0.0333742 18.9856 0.00702218 15.5811C-0.0590974 10.8816 0.465549 6.19191 1.56892 1.61593L1.57449 1.59419L1.58111 1.57214C1.66686 1.30201 1.81283 1.0535 2.00924 0.844988C2.20568 0.636451 2.44754 0.473218 2.71689 0.366431ZM3.22369 1.57403C3.13827 1.60789 3.06141 1.65988 2.99911 1.72602C2.93887 1.78999 2.89474 1.86634 2.86724 1.94877C1.79331 6.41552 1.28384 10.9932 1.34974 15.5799L1.34995 15.5876L1.34944 15.5967C1.30954 18.9601 1.45698 22.8294 1.76744 26.0453C1.92277 27.6541 2.11775 29.0871 2.3476 30.2065C2.46262 30.7666 2.58383 31.2372 2.70925 31.6064C2.80668 31.8932 2.89768 32.0905 2.97256 32.2161L3.04119 32.3186L3.04798 32.3255L3.55564 33.0075C5.38853 35.4917 8.05749 36.6563 11.0864 37.2015C14.1395 37.7511 17.4526 37.6568 20.5431 37.6906C26.037 37.754 29.4201 37.241 31.5414 36.1068C33.5842 35.0144 34.5453 33.2926 35.0231 30.5962L35.0262 30.5774C35.6668 27.5202 35.8204 24.3854 35.4836 21.2829C35.4577 21.2073 35.4196 21.1355 35.3685 21.0754C35.2017 20.8781 34.9027 20.6748 34.5008 20.4665C34.0945 20.2559 33.7047 20.0973 33.3126 19.9142C33.2288 19.8753 33.1373 19.8548 33.0445 19.8535C32.9521 19.8524 32.8596 19.8694 32.7751 19.9057L32.0222 20.2478L31.3279 20.562L31.2847 20.4283C31.2514 20.43 31.2182 20.4344 31.1848 20.4343C30.8998 20.4339 30.6194 20.3695 30.3634 20.2487L30.3452 20.242L29.9385 20.0678L29.9436 19.6367L29.9769 17.2048L29.9767 17.197C30.0999 12.4677 29.5036 7.74655 28.2058 3.18694C28.1797 3.10026 28.1382 3.02726 28.0792 2.96179L28.0762 2.95938C27.9013 2.76372 27.5911 2.55363 27.1876 2.34238C26.7939 2.13626 26.3769 1.96082 26.0184 1.80654C25.9347 1.77067 25.8436 1.75327 25.7522 1.75531C25.6607 1.75737 25.5707 1.77935 25.4888 1.81898L25.4874 1.81829L23.3323 2.87425L23.3205 2.8801C23.0404 3.01052 22.733 3.07618 22.4224 3.07397C22.1118 3.07172 21.8056 3.00072 21.5275 2.86624L21.5182 2.86238L21.51 2.85821L18.8102 1.45831C18.7226 1.41294 18.6253 1.38832 18.5261 1.38695C18.4518 1.38594 18.3781 1.3981 18.3085 1.42219L18.2395 1.44989L15.5053 2.77269C14.9363 3.06675 14.2547 3.05968 13.6899 2.75676L13.6895 2.75911L10.9966 1.37712L10.9271 1.34604C10.8558 1.31965 10.7799 1.30584 10.7032 1.30527C10.6008 1.30453 10.4993 1.32816 10.408 1.3731L10.4048 1.37405L7.67336 2.69824C7.39307 2.83375 7.08233 2.90262 6.7693 2.89839C6.45824 2.89416 6.15267 2.81761 5.87773 2.67627L3.76726 1.60851L3.7563 1.60295C3.67531 1.56025 3.58564 1.53556 3.49363 1.53062C3.40151 1.52569 3.30911 1.54016 3.22369 1.57403Z" fill="#2DC98A"/>
<path d="M32.5001 19.3116L31.7402 19.655C31.5689 19.7398 31.3793 19.7838 31.1871 19.7836C30.9948 19.7835 30.8053 19.739 30.6342 19.6539L28.7716 18.809L28.808 16.2193C28.933 11.4256 28.3279 6.64023 27.0124 2.01854C26.9604 1.84054 26.8686 1.67587 26.7437 1.53626C26.6187 1.39666 26.4638 1.28493 26.2896 1.21026C26.1155 1.13558 25.9263 1.0998 25.7359 1.10425C25.5456 1.10869 25.3587 1.15388 25.1884 1.2366L23.0301 2.29137C22.8421 2.38016 22.6354 2.42485 22.4264 2.42303C22.2175 2.42121 22.0118 2.37236 21.8256 2.28031L19.1263 0.882284C18.9442 0.787956 18.7416 0.737278 18.5354 0.734475C18.3291 0.731672 18.1251 0.776822 17.9404 0.866166L15.1909 2.19715C15.0075 2.29166 14.8023 2.3392 14.5948 2.33648C14.3872 2.33377 14.1839 2.28087 14.0032 2.1816L11.3089 0.799128C11.1235 0.704557 10.9175 0.654426 10.7081 0.652913C10.4988 0.651712 10.2921 0.699588 10.1055 0.791651L7.37347 2.11399C7.18879 2.20334 6.98482 2.24849 6.77854 2.24569C6.57227 2.24289 6.36968 2.19221 6.18764 2.09788L4.07671 1.02949C3.9083 0.940657 3.72171 0.889271 3.5304 0.879034C3.33929 0.869146 3.14822 0.901474 2.97101 0.971718C2.7938 1.04196 2.63394 1.14873 2.50444 1.2857C2.37506 1.42306 2.27865 1.58662 2.22219 1.76459C1.12997 6.29428 0.611514 10.9368 0.678351 15.5887C0.596201 22.3573 1.26847 31.1547 2.5082 32.7172C5.06891 36.0812 4.86602 37.1962 18.6935 37.347C29.7019 37.4722 32.8487 35.3272 33.8425 29.7135C34.5013 26.5685 34.6565 23.3436 34.3027 20.1526C34.2544 19.9735 34.1666 19.8068 34.0453 19.6639C33.9241 19.5211 33.7724 19.4056 33.6007 19.3254C33.4289 19.2452 33.2413 19.2023 33.0508 19.1996C32.8604 19.1969 32.6715 19.2345 32.4975 19.3098L32.5001 19.3116Z" fill="white"/>
<path d="M2.71709 0.367971C2.98592 0.261413 3.27625 0.213002 3.56615 0.228002C3.85317 0.242868 4.13297 0.321136 4.38662 0.452403L4.38734 0.451072L6.49781 1.51884L6.50362 1.52263C6.59102 1.56785 6.6884 1.59154 6.7874 1.59297C6.88657 1.59432 6.98511 1.57293 7.07394 1.53003L9.80665 0.20707C10.0873 0.0696173 10.3979 -0.000905843 10.7122 0.0008986C10.9492 0.00229242 11.1836 0.0446538 11.4041 0.125903L11.619 0.220589L11.6222 0.222465L14.3164 1.60515L14.3252 1.60852L14.3329 1.61349C14.4155 1.65887 14.5089 1.68255 14.6038 1.6838C14.6986 1.68504 14.792 1.66464 14.8759 1.62143L14.8836 1.61686L14.8916 1.6133L17.6415 0.282381C17.9219 0.146746 18.2314 0.0783285 18.5445 0.0825479C18.8577 0.0868041 19.1658 0.162883 19.4423 0.306113L22.1303 1.69896L22.202 1.7294C22.2756 1.75591 22.3529 1.76939 22.4318 1.77008C22.5356 1.77094 22.6389 1.74906 22.7324 1.70556L24.8865 0.65327L24.8876 0.652425C25.1461 0.526926 25.4315 0.459001 25.7204 0.452256C26.0092 0.445593 26.2963 0.500542 26.5607 0.613859C26.825 0.727248 27.0606 0.89654 27.2502 1.10844C27.4397 1.32022 27.5793 1.56982 27.6582 1.83981L27.6598 1.84487C28.9922 6.52587 29.6036 11.3726 29.4779 16.2279L29.4792 16.2286L29.4487 18.3959L30.9178 19.0628L30.9288 19.0683L30.9394 19.0729C31.0161 19.111 31.1013 19.1317 31.1875 19.1319C31.2205 19.1319 31.2532 19.1255 31.2855 19.1198L32.225 18.714C32.4879 18.6003 32.7731 18.5429 33.0608 18.547C33.3485 18.551 33.6325 18.6158 33.8919 18.7369C34.151 18.858 34.3799 19.0328 34.5628 19.2483C34.746 19.4641 34.8787 19.7171 34.9516 19.9878L34.9643 20.034L34.9696 20.0824C35.3302 23.3336 35.1723 26.6193 34.5031 29.8238C33.9865 32.7423 32.8776 34.9009 30.3473 36.2535C28.0483 37.4822 24.657 37.9968 19.6984 38.0045L18.6858 37.9996C11.7976 37.9245 8.26917 37.6139 6.14272 36.8496C3.91949 36.0504 3.20428 34.7297 1.97695 33.1157L1.89397 33.0042C1.70777 32.733 1.55831 32.3856 1.4323 32.0143C1.28397 31.5771 1.15027 31.0511 1.0292 30.4612C0.786803 29.2802 0.586178 27.7979 0.428663 26.166C0.152838 23.3084 0.0050206 19.954 0 16.8792L0.00702218 15.5811C-0.0590974 10.8816 0.465549 6.19191 1.56892 1.61593L1.57371 1.59269L1.58104 1.56931C1.66761 1.30001 1.81479 1.05263 2.0112 0.84488C2.20748 0.637297 2.44853 0.474511 2.71709 0.367971ZM3.22389 1.57557C3.13847 1.60949 3.06175 1.66152 2.99931 1.72756C2.93966 1.79066 2.89547 1.86578 2.8675 1.94695C1.79336 6.41411 1.28384 10.9927 1.34974 15.5799L1.34995 15.5876L1.34944 15.5967C1.30863 18.9603 1.45523 22.8284 1.76562 26.0441C1.9209 27.6528 2.11602 29.0858 2.34577 30.2053C2.46076 30.7655 2.58239 31.2368 2.70775 31.6062C2.80496 31.8926 2.89517 32.0903 2.97002 32.2162L3.03969 32.3185L3.04779 32.3294C4.37611 34.0744 4.84111 34.9904 6.60851 35.6257C8.47763 36.2975 11.7618 36.6195 18.7007 36.6952C24.1944 36.7576 27.5783 36.2449 29.7001 35.111C31.7433 34.0189 32.7043 32.2977 33.1814 29.6027L33.1829 29.5933L33.1841 29.5829C33.8246 26.5255 33.9786 23.3911 33.6415 20.2884C33.6168 20.2126 33.5803 20.1409 33.5282 20.0793C33.4689 20.0094 33.3937 19.9526 33.3097 19.9134C33.2258 19.8743 33.1343 19.853 33.0413 19.8517C32.9553 19.8505 32.8705 19.8678 32.791 19.8991L32.783 19.9027L32.0239 20.2467L32.0225 20.246C31.7623 20.3706 31.4765 20.4368 31.1863 20.4366C30.896 20.4363 30.6102 20.3695 30.3502 20.2443L28.0941 19.222L28.1011 18.8003L28.1372 16.2107L28.137 16.2029C28.2602 11.4751 27.6633 6.75548 26.3664 2.19722L26.3151 2.07376C26.2934 2.0348 26.2673 1.99758 26.2372 1.96396C26.1771 1.89692 26.1023 1.84398 26.0186 1.80808C25.9348 1.77217 25.8439 1.75476 25.7524 1.75685C25.6609 1.75899 25.5709 1.7808 25.489 1.82052L25.4876 1.81983L23.3308 2.87409L23.3228 2.87764C23.0417 3.01036 22.7327 3.07785 22.4202 3.07513C22.1076 3.07237 21.7998 2.99965 21.5212 2.86196L21.5102 2.8564L18.8102 1.45831C18.7226 1.41294 18.6253 1.38832 18.5261 1.38695C18.4268 1.38562 18.3284 1.40689 18.2395 1.44989L15.5038 2.77252C15.5009 2.77405 15.4981 2.7759 15.4951 2.77741L15.4902 2.78001L15.4889 2.77932C15.2099 2.91993 14.9001 2.99334 14.5857 2.98922C14.2718 2.9851 13.9645 2.90412 13.6899 2.75676L10.9966 1.37712C10.9061 1.33128 10.8053 1.30588 10.7032 1.30527C10.6008 1.30453 10.4993 1.32816 10.408 1.3731L10.405 1.3756L7.67336 2.69824C7.39307 2.83375 7.08233 2.90262 6.7693 2.89839C6.45824 2.89416 6.15267 2.81761 5.87773 2.67627L3.76648 1.60701L3.75859 1.60385C3.67725 1.56132 3.58711 1.53665 3.49488 1.53184C3.40255 1.52706 3.30948 1.54164 3.22389 1.57557Z" fill="#2DC98A"/>
<path d="M27.8237 23.5131C27.8318 23.1529 28.1391 22.8675 28.5097 22.8753C28.8803 22.8832 29.174 23.1819 29.1658 23.5421C29.1254 25.3411 28.9841 27.1369 28.7423 28.921C28.6938 29.278 28.3567 29.5294 27.9893 29.4824C27.6219 29.4353 27.3634 29.1076 27.4117 28.7505C27.6471 27.0133 27.7843 25.2648 27.8237 23.5131ZM6.46919 25.7971C6.50674 25.4388 6.83634 25.178 7.20499 25.2143C7.20581 25.2143 7.20908 25.2145 7.21086 25.2147C7.21431 25.215 7.21943 25.215 7.22604 25.2156C7.24052 25.217 7.26272 25.2198 7.29122 25.2224C7.34844 25.2278 7.43347 25.2348 7.54099 25.2442C7.75598 25.2629 8.06311 25.2883 8.43047 25.3145C9.16737 25.367 10.1412 25.4232 11.0967 25.4369C12.0497 25.4506 12.991 25.418 13.6964 25.3816C14.0485 25.3635 14.3409 25.3444 14.5442 25.33C14.6456 25.3228 14.7252 25.316 14.7788 25.3118C14.8054 25.3097 14.8256 25.3079 14.839 25.3068C14.8454 25.3063 14.8503 25.306 14.8535 25.3057L14.858 25.3055C15.2272 25.2738 15.5537 25.5391 15.5864 25.8979C15.6189 26.2567 15.3456 26.573 14.9765 26.6048L14.9744 26.6054C14.9734 26.6055 14.9718 26.6056 14.9699 26.6057C14.9659 26.606 14.9598 26.6071 14.9523 26.6078C14.9372 26.609 14.9146 26.6101 14.8862 26.6123C14.8293 26.6168 14.7466 26.6239 14.6416 26.6313C14.4308 26.6463 14.13 26.6655 13.7678 26.6842C13.0447 26.7215 12.0701 26.7562 11.0762 26.742C10.0848 26.7278 9.08306 26.67 8.33227 26.6165C7.95632 26.5897 7.64142 26.5634 7.42037 26.5441C7.31019 26.5345 7.22318 26.5269 7.16337 26.5213C7.13343 26.5185 7.10946 26.5162 7.09369 26.5147C7.08602 26.514 7.07984 26.5128 7.07577 26.5124C7.07388 26.5122 7.07233 26.5128 7.07127 26.5127L7.0699 26.512C6.70122 26.4755 6.43183 26.1554 6.46919 25.7971ZM6.464 18.2364C6.49572 17.8777 6.82023 17.6118 7.18929 17.6422C9.55713 17.8385 11.9333 17.9302 14.3097 17.9171C16.1118 17.8928 17.9143 17.8597 19.2677 17.8323C19.9448 17.8185 20.5091 17.8059 20.904 17.7971C21.1013 17.7927 21.2563 17.7889 21.362 17.7865C21.4149 17.7853 21.4564 17.7845 21.4837 17.7838C21.4971 17.7835 21.5077 17.7835 21.5145 17.7834C21.5177 17.7833 21.5208 17.7832 21.5224 17.7832L21.5245 17.7825C21.8951 17.7738 22.2033 18.0594 22.2123 18.4196C22.2201 18.7346 21.9963 19.0032 21.6923 19.0713L21.5565 19.0871L21.5545 19.0878C21.5527 19.0878 21.55 19.0879 21.5465 19.088C21.5396 19.0881 21.5293 19.0881 21.5157 19.0884C21.4883 19.0891 21.4471 19.0898 21.3941 19.0911C21.288 19.0935 21.1325 19.0966 20.9347 19.101C20.539 19.1098 19.9739 19.1221 19.2959 19.1358C17.9398 19.1633 16.1311 19.1973 14.3234 19.2217L14.3178 19.2223C11.9006 19.2357 9.48407 19.142 7.07558 18.9423C6.70622 18.9117 6.4325 18.5954 6.464 18.2364ZM6.61305 10.6107C6.63802 10.2514 6.95753 9.97934 7.32718 10.0033C9.69955 10.1587 12.0761 10.2534 14.4536 10.2864C16.2399 10.3018 18.0244 10.2715 19.3637 10.2373C20.033 10.2202 20.5909 10.2018 20.9806 10.188C21.1753 10.1812 21.3281 10.1757 21.4321 10.1716C21.4841 10.1695 21.524 10.1677 21.5507 10.1666C21.5638 10.166 21.5738 10.1667 21.5804 10.1664C21.5837 10.1663 21.5864 10.1653 21.5881 10.1652L21.5905 10.1656C21.9608 10.1498 22.2747 10.4288 22.291 10.7888C22.3071 11.1486 22.0197 11.4528 21.6495 11.4686L21.6464 11.4696L21.6066 11.4706C21.5791 11.4717 21.5384 11.4742 21.4859 11.4762C21.3802 11.4804 21.225 11.4853 21.0285 11.4922C20.6351 11.5061 20.0732 11.5248 19.3992 11.542C18.0511 11.5763 16.2498 11.6066 14.4421 11.5909L14.4387 11.5908C12.0362 11.5576 9.63457 11.4632 7.23726 11.3062C6.86741 11.282 6.58813 10.9702 6.61305 10.6107Z" fill="#2DC98A"/>
</svg>
